Coordinates
version=1
nRows=22
nColumns=24
inDegrees=yes

Units are S.I. units (second, meters, Newtons, ...)
Angles are in degrees.

endheader
time	pelvis_tilt	pelvis_list	pelvis_rotation	pelvis_tx	pelvis_ty	pelvis_tz	hip_flexion_r	hip_adduction_r	hip_rotation_r	knee_angle_r	ankle_angle_r	subtalar_angle_r	mtp_angle_r	hip_flexion_l	hip_adduction_l	hip_rotation_l	knee_angle_l	ankle_angle_l	subtalar_angle_l	mtp_angle_l	lumbar_extension	lumbar_bending	lumbar_rotation
      8.26000000	     -1.89317757	      0.68203390	      9.10126270	     -0.79602159	      0.67675620	      0.18021646	     12.97110169	      1.68891676	     -7.70903421	    -10.05506334	      4.95676545	    -18.92967446	      0.00000000	     11.83258356	      2.54913750	      4.88986303	    -64.02661139	    -12.94349990	    -20.77143942	      0.00000000	     -9.85759737	      0.13213461	     -5.33259160
      8.27000000	     -1.91757428	      0.92831582	      8.88402746	     -0.78815032	      0.67808291	      0.18170333	     11.99705275	      1.70295175	     -7.77992498	     -9.56190010	      5.66449242	    -18.13540629	      0.00000000	     13.84557995	      3.15437898	      4.78278102	    -65.37789867	    -10.18594407	    -18.70179709	      0.00000000	    -10.05975408	     -0.26164402	     -5.00951664
      8.28000000	     -1.97330935	      1.24412307	      8.58614906	     -0.78031026	      0.67925320	      0.18322852	     11.07454136	      1.65364201	     -7.70889643	     -9.10177823	      6.36495910	    -17.56514692	      0.00000000	     15.76674994	      3.81083498	      4.63662993	    -66.27582612	     -7.68239881	    -16.71191600	      0.00000000	    -10.20535546	     -0.74138462	     -4.64675771
      8.29000000	     -2.03235697	      1.55768106	      8.22338671	     -0.77251246	      0.68027146	      0.18475721	     10.17387987	      1.60360856	     -7.57426478	     -8.65209623	      6.99939957	    -17.03469045	      0.00000000	     17.58150782	      4.42780795	      4.46227373	    -66.74796222	     -5.48891626	    -15.08132719	      0.00000000	    -10.32160912	     -1.20938097	     -4.29691478
      8.30000000	     -2.08688736	      1.84750098	      7.80157900	     -0.76477574	      0.68113258	      0.18626594	      9.30341491	      1.56397985	     -7.44879949	     -8.23701886	      7.63589847	    -16.46566836	      0.00000000	     19.28129891	      4.98126460	      4.26485681	    -66.80494479	     -3.63734869	    -14.09481386	      0.00000000	    -10.42288700	     -1.63256869	     -3.93568531
      8.31000000	     -2.14960453	      2.11315789	      7.31610613	     -0.75711915	      0.68182808	      0.18775430	      8.48790140	      1.52831199	     -7.35132587	     -7.87773069	      8.32498545	    -15.77777769	      0.00000000	     20.87654983	      5.46279986	      4.02786118	    -66.44950062	     -2.15561039	    -13.96449693	      0.00000000	    -10.50289139	     -2.01472460	     -3.55241797
      8.32000000	     -2.21126337	      2.37583327	      6.75492636	     -0.74954971	      0.68236962	      0.18923490	      7.70419708	      1.48703044	     -7.12479288	     -7.55242510	      8.96438946	    -15.27738575	      0.00000000	     22.34517630	      5.88516138	      3.74026428	    -65.67181563	     -1.14537238	    -14.89010912	      0.00000000	    -10.58286580	     -2.38990316	     -3.05352398
      8.33000000	     -2.32410462	      2.60710813	      6.18901861	     -0.74207410	      0.68273162	      0.19062031	      7.05391781	      1.42685936	     -7.15653389	     -7.35075104	      9.78103134	    -14.33550065	      0.00000000	     23.74539551	      6.24074686	      3.45282398	    -64.47542229	     -0.74206049	    -17.08655491	      0.00000000	    -10.59714273	     -2.70051902	     -2.68724325
      8.34000000	     -2.44051074	      2.81780155	      5.55202129	     -0.73465822	      0.68294052	      0.19202230	      6.42982441	      1.38834866	     -6.99907195	     -7.16802052	     10.54293764	    -13.60955185	      0.00000000	     25.01792142	      6.48429829	      3.11856751	    -62.88707685	     -0.73693390	    -20.03632244	      0.00000000	    -10.60274061	     -2.98793243	     -2.17952689
      8.35000000	     -2.58546926	      3.00798057	      4.86809461	     -0.72727379	      0.68299600	      0.19341738	      5.85364495	      1.36368440	     -6.74049544	     -6.99948549	     11.25938248	    -12.97652021	      0.00000000	     26.17203670	      6.62824572	      2.77641259	    -60.90009710	     -1.25272118	    -23.75579100	      0.00000000	    -10.56121056	     -3.25064186	     -1.64747220
      8.36000000	     -2.73818247	      3.16321920	      4.15233823	     -0.71988845	      0.68291770	      0.19479562	      5.29466576	      1.36976209	     -6.40282118	     -6.83534249	     11.93079356	    -12.45097504	      0.00000000	     27.17961941	      6.65693949	      2.46299185	    -58.54827622	     -2.16594552	    -27.84524230	      0.00000000	    -10.49479332	     -3.46732022	     -1.08267189
      8.37000000	     -2.89349704	      3.27105558	      3.39776479	     -0.71246945	      0.68271373	      0.19617564	      4.73019463	      1.42296595	     -5.96307751	     -6.64702665	     12.54289191	    -12.04331058	      0.00000000	     28.03539050	      6.54694528	      2.17684249	    -55.87934735	     -3.26286529	    -31.82006253	      0.00000000	    -10.39656907	     -3.62901563	     -0.48603097
      8.38000000	     -3.03978584	      3.31616901	      2.61287960	     -0.70499289	      0.68239282	      0.19754713	      4.14142607	      1.53759974	     -5.45265026	     -6.43182329	     13.09986571	    -11.72988583	      0.00000000	     28.73661882	      6.29566271	      1.93742910	    -52.95807164	     -4.27772382	    -35.23609728	      0.00000000	    -10.28342322	     -3.71848723	      0.14255072
      8.39000000	     -3.17183505	      3.28607537	      1.80560856	     -0.69744551	      0.68195829	      0.19889836	      3.51866607	      1.72122855	     -4.91118225	     -6.19032614	     13.61826891	    -11.46988360	      0.00000000	     29.29328385	      5.91097300	      1.76280555	    -49.85282950	     -5.01101052	    -37.78015539	      0.00000000	    -10.16195867	     -3.72217064	      0.80360380
      8.40000000	     -3.29769266	      3.12102040	      0.94869637	     -0.68981728	      0.68137892	      0.20028486	      2.86192059	      2.04171554	     -4.30637411	     -5.90838969	     14.13034683	    -11.26027857	      0.00000000	     29.77177211	      5.30584142	      1.58347999	    -46.72057288	     -4.86424951	    -38.69567949	      0.00000000	    -10.02026032	     -3.58541494	      1.57375222
      8.41000000	     -3.36108268	      3.01815030	      0.17547304	     -0.68208420	      0.68079208	      0.20145290	      2.11618137	      2.25352337	     -3.84098038	     -5.63343319	     14.57387388	    -10.93452917	      0.00000000	     29.99714979	      4.89565979	      1.75486583	    -43.34231072	     -5.39240469	    -39.83033263	      0.00000000	     -9.95409838	     -3.49436143	      2.16972696
      8.42000000	     -3.45844067	      2.76241262	     -0.58079578	     -0.67424871	      0.68000597	      0.20257768	      1.37020586	      2.61189047	     -3.40293947	     -5.31534922	     15.01571292	    -10.69741025	      0.00000000	     30.23028212	      4.32017079	      2.01182124	    -40.07349653	     -5.19996511	    -39.59742197	      0.00000000	     -9.82359228	     -3.23464329	      2.83903293
      8.43000000	     -3.39608282	      2.53856089	     -1.29320910	     -0.66623983	      0.67927371	      0.20357342	      0.41856718	      2.89914177	     -3.10172801	     -4.97872256	     15.48858412	    -10.31323104	      0.00000000	     30.19419017	      3.84311666	      2.44740001	    -36.80502501	     -4.71391244	    -38.51754670	      0.00000000	     -9.87411489	     -3.01056686	      3.45650724
      8.44000000	     -3.29240900	      2.25086379	     -1.93775006	     -0.65809371	      0.67846517	      0.20447082	     -0.59066433	      3.22854663	     -2.88707771	     -4.66342150	     15.95374311	     -9.90601974	      0.00000000	     30.05847024	      3.36777786	      3.08420933	    -33.63339032	     -3.93463245	    -36.70784929	      0.00000000	     -9.96387405	     -2.72881589	      4.02827243
      8.45000000	     -3.12752629	      1.93259008	     -2.46556387	     -0.64979857	      0.67761540	      0.20521575	     -1.67948857	      3.56603982	     -2.77791730	     -4.36858347	     16.39597008	     -9.53571992	      0.00000000	     29.79467251	      2.94154969	      3.89683029	    -30.53716931	     -3.04874200	    -34.44706737	      0.00000000	    -10.12282015	     -2.40026269	      4.50101967
      8.46000000	     -2.92250937	      1.60889742	     -2.88767559	     -0.64133418	      0.67672458	      0.20587064	     -2.80432161	      3.89616706	     -2.78057778	     -4.13015993	     16.83447589	     -9.20481239	      0.00000000	     29.42438309	      2.55530947	      4.75945855	    -27.51818405	     -2.06482513	    -31.81238262	      0.00000000	    -10.31209315	     -2.08103364	      4.87644753
      8.47000000	     -2.68733039	      1.28620620	     -3.23015598	     -0.63268980	      0.67580053	      0.20646080	     -3.93639228	      4.21719740	     -2.85580843	     -3.97883514	     17.26641151	     -8.93018742	      0.00000000	     28.95329053	      2.18856647	      5.54224807	    -24.56682695	     -1.10417972	    -29.05200924	      0.00000000	    -10.51467899	     -1.77609615	      5.19364235
